PathFileType	4	(X/Y/Z)	C:/Users/beibeiliu/ov580/test_trc\sequence.21_training_dense_right.trc
DataRate	CameraRate	NumFrames	NumMarkers	Units	OrigDataRate	OrigDataStartFrame	OrigNumFrames
120	120	22	19	mm	120	100	397
Frame#	Time	ThumbCMC			ThumbMCP			ThumbIP			ThumbTip			IndexMCP			IndexPIP			IndexTip			MiddleMCP			MiddlePIP			MiddleTip			RingMCP			RingPIP			RingTip			PinkyMCP			PinkyPIP			PinkyTip			BackHand1			BackHand2			BackHand3	
		X0	Y0	Z0	X1	Y1	Z1	X2	Y2	Z2	X3	Y3	Z3	X4	Y4	Z4	X5	Y5	Z5	X6	Y6	Z6	X7	Y7	Z7	X8	Y8	Z8	X9	Y9	Z9	X10	Y10	Z10	X11	Y11	Z11	X12	Y12	Z12	X13	Y13	Z13	X14	Y14	Z14	X15	Y15	Z15	X16	Y16	Z16	X17	Y17	Z17	X18	Y18	Z18	
99	0.825	191	23.5699	34.991	174.703	-2.72901	31.0322	178.045	-29.3771	23.9583	192.256	-51.0298	26.7714	185.396	-26.703	-7.33111	175.41	-45.7915	-11.3498	163.707	-70.0225	-13.1506	200.186	-42.3987	-5.94925	192.361	-62.604	-8.46947	180.573	-84.8651	-13.2775	217.01	-48.747	8.17389	209.477	-70.5949	5.35981	199.57	-88.2723	3.26228	235.068	-48.7215	22.822	227.148	-66.7401	19.1715	216.871	-82.451	11.645	235.224	-7.30986	21.5606	246.101	15.1702	34.823	218.038	17.5803	17.7219	
100	0.833333	184.889	18.8563	37.4326	168.647	-10.036	31.4412	175.22	-33.8073	26.7102	196.914	-49.4792	26.1686	187.079	-30.8903	-7.54092	176.818	-52.5436	-14.1746	171.264	-71.9818	-15.3403	204.143	-42.9101	-4.73839	198.834	-66.057	-10.3364	192.254	-87.0624	-15.5716	221.154	-45.3495	7.2265	214.375	-67.6565	1.85306	207.57	-90.238	-1.71489	236.394	-42.3302	22.7875	231.485	-59.651	17.7967	231.096	-80.2194	13.9907	229.274	-0.584443	20.8655	238.31	19.2777	34.2866	211.951	19.1933	16.7862	
101	0.841667	176.972	12.9315	34.6814	171.263	-16.3542	30.3734	179.06	-41.4631	23.0401	195.768	-55.3929	25.46	183.726	-33.1115	-10.8678	179.207	-53.0388	-15.7382	176.062	-78.0399	-18.8927	206.875	-43.9339	-7.11717	203.064	-62.9076	-12.1057	201.278	-89.7569	-20.6368	221.357	-43.5091	4.5466	220.93	-65.3218	1.1075	218.256	-85.7706	-4.75989	237.238	-37.6674	23.2742	238.176	-58.6346	19.7702	243.007	-75.2279	13.5967	227.934	3.68448	23.492	228.279	24.3861	36.2913	207.339	18.6224	17.7705	
102	0.85	177.305	11.1051	36.0959	168.795	-20.0677	30.4904	181.326	-44.4683	23.404	199.103	-54.2588	26.8773	189.408	-31.6895	-10.1007	186.784	-53.3275	-16.5209	183.517	-77.2474	-20.8775	211.49	-39.8741	-6.73781	211.486	-63.4907	-14.32	213.954	-89.2796	-22.6622	227.839	-39.37	7.88962	228.205	-60.7037	0.916845	229.671	-80.3199	-5.96143	242.26	-37.1914	24.6387	245.69	-53.2967	23.4307	253.605	-68.3244	19.2875	225.846	3.1916	20.2704	226.439	27.8778	38.1511	205.167	19.7778	19.2792	
103	0.858333	171.717	9.62752	36.2146	170.709	-22.6738	30.3803	185.024	-42.825	24.5012	207.858	-56.8567	24.6946	194.958	-34.4924	-11.1887	189.889	-56.5055	-19.0007	187.171	-78.7679	-24.0003	216.916	-38.1705	-5.59609	215.071	-60.8036	-16.4454	218.237	-82.2503	-25.7425	230.765	-38.1382	5.86841	235.078	-56.0087	1.51967	239.542	-74.7506	-6.11909	247.183	-33.1512	28.3662	250.813	-46.4518	24.6189	261.865	-59.9703	20.2135	227.002	6.23435	23.5335	221.504	29.3501	38.5487	198.762	21.6444	18.6632	
104	0.866667	174.911	7.30526	37.0786	171.783	-28.332	27.4086	190.681	-44.6581	22.6534	210.224	-54.5034	24.8319	193.823	-31.1415	-13.5194	194.012	-55.3779	-22.2331	197.771	-77.0897	-25.3317	217.207	-36.8274	-10.9988	223.778	-56.4542	-17.2852	230.486	-77.5276	-27.1757	236.045	-33.9235	6.32287	240.204	-53.0221	-3.45598	249.8	-71.0203	-8.05703	248.247	-26.2989	29.0821	256.744	-41.815	26.9145	270.528	-56.19	18.9968	224.784	11.0065	25.7387	219.464	30.2008	41.9434	200.885	20.4535	22.2797	
105	0.875	173.741	4.26724	33.1624	175.248	-30.6915	26.0278	195.198	-48.8669	20.0285	218.587	-54.1245	22.8861	198.982	-32.5611	-16.0499	200.202	-52.8916	-23.4293	203.631	-73.2553	-29.2243	222.841	-33.9204	-10.5935	229.109	-50.8476	-18.3777	237.939	-73.1159	-30.848	238.386	-31.9389	2.83452	245.674	-48.8695	-5.88087	254.002	-62.2655	-12.0066	250.48	-23.1394	28.394	261.932	-39.3032	23.6328	274.636	-48.0806	19.9057	224.509	9.41549	24.2303	215.55	30.4963	39.2923	197.426	18.2809	18.2793	
106	0.883333	170.727	0.695366	30.5534	177.792	-32.9737	23.3869	200.664	-48.3485	17.3679	221.008	-52.7807	21.8725	206.395	-32.1569	-16.229	209.705	-49.904	-24.1882	214.372	-72.7813	-33.7722	229.918	-32.4105	-11.0811	237.866	-49.855	-22.3256	248.788	-70.4416	-35.56	242.365	-27.3802	2.21781	251.38	-42.3825	-5.16455	260.132	-56.8525	-14.3091	252.291	-18.4049	30.17	268.045	-33.5584	26.3406	280.397	-39.5402	22.9879	228.797	11.7566	24.5389	217.944	31.3437	41.2751	199.383	18.1373	16.0878	
107	0.891667	172.944	-2.28145	30.5654	186.116	-32.3671	23.1745	207.603	-47.2335	16.3165	229.718	-52.8757	19.8085	208.619	-30.0948	-18.9582	212.671	-50.9698	-30.0655	221.771	-72.6863	-38.2245	233.024	-30.2641	-14.6156	241.269	-46.1433	-24.0971	256.365	-61.1305	-33.2001	245.347	-23.601	2.67043	261.627	-38.5935	-5.51996	268.242	-51.7772	-15.5948	257.443	-16.0356	28.7148	268.421	-24.605	24.7817	285.466	-32.9468	17.3431	228.222	12.2516	25.4974	215.188	29.6549	37.1728	198.506	18.6884	17.1564	
108	0.9	177.648	-3.38168	29.752	190.694	-36.1582	18.9166	211.076	-50.7705	14.2836	235.898	-49.3631	18.5992	214.259	-27.6936	-19.3397	222.517	-49.5909	-31.7973	229.769	-68.6812	-41.3549	234.276	-23.7111	-12.7591	250.518	-39.5552	-22.9968	262.064	-55.8806	-37.0436	251.806	-20.5813	1.11999	266.768	-32.0909	-5.8496	279.835	-45.1653	-16.5088	261.826	-12.5254	26.7795	271.658	-19.5776	23.0748	291.246	-23.255	19.0098	228.48	14.0498	26.6412	212.642	30.4834	36.1072	199.627	19.518	15.0156	
109	0.908333	178.654	-7.04199	25.8662	194.168	-35.0904	17.6799	220.198	-47.5129	11.2913	243.143	-45.5015	16.3882	217.501	-24.8926	-21.0272	227.397	-43.2519	-31.632	240.298	-63.1656	-44.3409	245.246	-21.6512	-14.7725	253.688	-35.7115	-27.205	272.264	-46.6477	-37.6639	257.441	-14.073	3.51593	270.687	-23.9415	-4.81356	284.597	-36.1382	-16.2574	262.656	-6.36559	24.7846	278.776	-13.6148	23.3917	294.805	-16.9126	17.5924	228.121	15.6534	25.1138	214.818	31.9645	38.225	200.383	17.8675	17.5824	
110	0.916667	183.925	-11.0999	20.7298	202.336	-37.6125	13.7044	224.383	-47.9406	7.35378	252.778	-44.0408	11.4843	227.639	-20.3039	-21.2957	239.372	-39.767	-35.1672	248.174	-55.4468	-47.4846	245.319	-14.2622	-16.8139	265.422	-28.6035	-29.5352	281.99	-37.5125	-42.0334	258.963	-6.8374	3.38442	276.373	-18.1827	-11.244	288.697	-26.1408	-17.7062	266.24	0.356858	26.0449	280.547	-6.60773	21.1889	299.816	-4.02362	20.4644	229.108	18.5719	26.3669	210.841	30.4444	40.948	202.048	17.8996	13.4925	
111	0.925	188.674	-12.7189	21.7872	206.651	-37.1502	12.4364	228.936	-45.5079	4.67922	255.065	-40.1135	8.53725	230.95	-18.9094	-24.9611	243.55	-35.2754	-38.6079	254.634	-50.7938	-50.5921	250.662	-9.78626	-17.2282	264.379	-21.232	-30.8317	287.01	-30.6951	-46.5896	262.709	-2.11454	1.79233	277.994	-11.6362	-11.2124	296.22	-17.8283	-21.5941	264.699	3.68709	24.6409	283.148	-0.534752	21.8663	299.356	2.70418	20.121	227.801	17.65	19.9497	212.845	30.2637	39.5358	198.774	17.5263	15.1418	
112	0.933333	189.634	-14.9953	19.7863	212.407	-34.7204	8.65579	233.84	-41.562	2.18931	260.298	-35.9602	5.42286	230.129	-17.7775	-27.131	247.755	-31.0937	-40.9356	258.57	-42.6226	-50.7476	252.205	-8.80375	-23.1123	267.838	-14.0514	-31.6924	285.91	-23.1913	-49.6423	262.586	1.36705	-3.74935	280.951	-4.91639	-14.0574	299.609	-9.95582	-23.7183	267.331	7.92222	25.1444	285.803	6.51944	23.2044	302.049	8.61253	18.138	229.903	21.3416	19.9941	210.928	29.1844	37.5201	200.994	14.0247	14.0107	
113	0.941667	188.541	-17.6614	18.5084	212.267	-39.7435	5.88929	239.433	-39.7491	-3.71224	261.803	-34.8263	1.22361	233.615	-12.657	-29.0484	244.587	-25.8259	-43.3225	264.97	-36.4543	-57.1531	254.313	-1.44617	-19.7006	273.443	-9.0665	-36.2701	285.887	-13.4142	-49.3684	262.982	4.62214	-4.99119	283.207	3.01712	-12.5144	299.84	-1.59967	-26.959	270.785	11.1993	22.9295	286.485	10.1546	17.2234	299.686	15.4498	17.6668	229.18	19.9221	19.4046	207.575	26.0791	39.6055	199.239	13.603	14.7831	
114	0.95	192.889	-18.7803	15.5291	214.931	-36.731	3.7111	238.257	-36.0135	-3.10848	264.173	-27.4322	-1.58777	233.528	-10.995	-32.6037	248.776	-21.2777	-47.3983	264.743	-28.6819	-60.9288	255.737	3.71607	-23.7848	267.779	-3.53336	-38.2787	285.166	-5.9611	-54.2063	262.554	9.20145	-7.92258	283.492	8.20241	-17.7928	296.676	6.86898	-25.797	268.878	15.2249	22.8469	286.198	14.8751	17.1442	298.489	20.4212	15.9318	226.552	22.7464	23.0366	208.582	25.7067	34.6148	198.344	12.2713	14.0862	
115	0.958333	191.265	-19.7821	16.9924	216.194	-37.3403	-0.872354	239.76	-35.9123	-9.16449	262.587	-24.2042	-3.75763	233.361	-4.01591	-32.7951	247.143	-14.3585	-51.5802	261.021	-23.0281	-69.3407	251.015	7.80423	-27.2421	270.521	4.96516	-43.3486	284.572	3.30789	-62.4204	261.281	14.109	-4.41329	277.955	12.9927	-20.3975	295.277	14.1608	-30.1307	268.213	16.8851	17.1626	284.709	17.5923	11.3916	296.337	25.4204	8.01024	225.351	22.1061	22.6036	207.549	23.7442	38.4953	200.903	16.2943	13.068	
116	0.966667	194.907	-15.993	14.3239	217.447	-33.5907	-4.42923	241.658	-32.3016	-14.7249	261.655	-22.8284	-9.58885	230.645	-0.103874	-35.958	243.578	-9.05533	-57.4167	260.718	-13.8853	-72.2599	248.009	11.5563	-31.8673	267.4	10.8218	-46.6176	282.069	12.3508	-63.2251	260.952	17.4395	-11.7282	276.712	19.2918	-22.5066	290.769	19.3112	-34.2042	266.454	20.4103	12.7449	279.072	21.288	10.4787	295.528	29.9902	2.41203	226.109	22.9952	17.3583	204.928	24.9101	39.4313	196.087	15.6343	13.5118	
117	0.975	195.299	-15.5542	13.0991	214.961	-33.558	-7.82389	238.788	-26.9312	-14.8807	264.12	-19.5919	-13.3811	226.822	2.0497	-42.5577	238.74	-4.04479	-59.3869	254.323	-7.85534	-76.3504	245.664	15.2778	-32.9128	257.73	14.1524	-47.6494	276.991	16.8873	-67.5068	259.906	20.6346	-11.8636	274.131	20.9972	-25.9912	288.972	24.207	-42.6164	269.082	21.9915	12.56	278.764	23.2496	7.60094	295.504	33.6225	-0.10956	225.407	23.1758	16.5492	210.623	23.4527	41.4307	200.225	15.8982	10.3379	
118	0.983333	191.716	-15.5971	11.7983	215.58	-27.5919	-11.4755	236.779	-27.499	-20.1456	261.13	-17.0276	-16.4703	222.656	7.4887	-40.2471	234.04	3.31825	-60.5659	247.296	-0.726247	-80.3929	242.105	18.4085	-31.9001	255.814	19.61	-50.1382	274.899	23.9375	-68.2108	260.77	23.5636	-15.4128	275.774	25.4966	-30.4827	284.55	28.1069	-45.9496	264.797	20.7807	11.4162	284.197	25.4426	5.61714	292.618	33.3938	-1.19389	226.137	25.1893	19.6329	212.887	23.1471	41.0553	200.853	19.3869	11.4013	
119	0.991667	193.368	-13.9253	10.0676	212.395	-26.2089	-14.9462	233.921	-22.4564	-22.8992	257.742	-16.2603	-19.8397	219.21	12.8471	-40.0307	233.147	11.866	-61.7549	242.789	9.23004	-81.077	241.959	24.5573	-35.4761	254.035	26.193	-53.0179	269.793	30.9105	-68.2355	254.779	24.3467	-16.6083	272.838	29.1176	-32.9133	280.313	31.2178	-46.8382	265.874	20.8279	11.4519	282.444	26.0148	0.00777351	292.92	35.8521	-4.55223	226.099	22.7156	19.7471	213.277	22.6281	38.0543	199.572	17.2526	12.5127	
120	1	191.522	-13.0072	9.50293	210.423	-22.3799	-20.3673	232.948	-18.1867	-27.5154	255.705	-13.1329	-25.2104	220.881	19.4772	-43.2427	226.93	19.2867	-63.05	237.374	19.9806	-80.917	238.628	28.0783	-37.5697	250.832	31.9674	-51.4057	264.342	39.4496	-72.1043	254.799	27.3378	-17.4003	268.667	32.8736	-32.003	279.602	37.5655	-47.478	267.178	21.0379	8.28133	279.688	25.5717	-0.113729	293.02	37.9012	-6.64092	228.447	24.0612	15.7825	213.484	20.5652	41.8885	200.9	20.4546	14.7145	
